<svg xmlns="http://www.w3.org/2000/svg" viewBox="8 8 462.88 156"><polygon points="172,60 150,40 120,86 172,84" fill="#1A9DD6"/><polygon points="150,40 66,22 120,86" fill="#46BFE8"/><polygon points="120,86 22,150 96,126 130,146 152,104 172,84" fill="#0F79B6"/><polygon points="202,52 172,60 172,84" fill="#0A1628"/><circle cx="159" cy="64" r="4.4" fill="#0A1628"/><g transform="translate(246 50) scale(0.102857 -0.102857) translate(-18 -700)"><path d="M18 0 202 700H432L616 0H480L442 154H192L154 0ZM223 276H411L326 617H308Z" fill="#0A1628"/><path d="M700 0H832 V498 H700 Z" fill="#0A1628"/><path d="M964 0V700H1268Q1334 700 1383.0 677.0Q1432 654 1459.0 612.0Q1486 570 1486 513V501Q1486 438 1456.0 399.0Q1426 360 1382 342V324Q1422 322 1444.0 296.5Q1466 271 1466 229V0H1334V210Q1334 234 1321.5 249.0Q1309 264 1280 264H1096V0ZM1096 384H1254Q1301 384 1327.5 409.5Q1354 435 1354 477V487Q1354 529 1328.0 554.5Q1302 580 1254 580H1096Z" fill="#0A1628"/><path d="M1548 0 1732 700H1962L2146 0H2010L1972 154H1722L1684 0ZM1753 276H1941L1856 617H1838Z" fill="#1A9DD6"/><circle cx="766" cy="634" r="66" fill="#1A9DD6"/></g></svg>
